PathFileType	4	(X/Y/Z)	Run_400 02
DataRate	CameraRate	NumFrames	NumMarkers	Units	OrigDataRate	OrigDataStartFrame	OrigNumFrames
100	100	4	45	mm	100	338	137
Frame#	Time	LASI			RASI			LPSI			RPSI			RTH1			RTH2			RTH3			LTH1			LTH2			LTH3			RTB1			RTB2			RTB3			RLMAL			RMMAL			LTB1			LTB2			LTB3			RCAL			RTOE			RMT5			LCAL			LTOE			LMT5			LACR			RACR			CLAV			C7			LPSH			RUA1			RUA2			RUA3			RLEL			RMEL			LUA1			LUA2			LUA3			LLEL			LMEL			RFAsuperior			RFAradius			RFAulna			LFAsuperior			LFAradius			LFAulna		
		X1	Y1	Z1	X2	Y2	Z2	X3	Y3	Z3	X4	Y4	Z4	X5	Y5	Z5	X6	Y6	Z6	X7	Y7	Z7	X8	Y8	Z8	X9	Y9	Z9	X10	Y10	Z10	X11	Y11	Z11	X12	Y12	Z12	X13	Y13	Z13	X14	Y14	Z14	X15	Y15	Z15	X16	Y16	Z16	X17	Y17	Z17	X18	Y18	Z18	X19	Y19	Z19	X20	Y20	Z20	X21	Y21	Z21	X22	Y22	Z22	X23	Y23	Z23	X24	Y24	Z24	X25	Y25	Z25	X26	Y26	Z26	X27	Y27	Z27	X28	Y28	Z28	X29	Y29	Z29	X30	Y30	Z30	X31	Y31	Z31	X32	Y32	Z32	X33	Y33	Z33	X34	Y34	Z34	X35	Y35	Z35	X36	Y36	Z36	X37	Y37	Z37	X38	Y38	Z38	X39	Y39	Z39	X40	Y40	Z40	X41	Y41	Z41	X42	Y42	Z42	X43	Y43	Z43	X44	Y44	Z44	X45	Y45	Z45	

338	  3.380000	982.685885	1058.738918	-446.214715	983.768421	1076.881995	-215.296433	819.401683	1097.852253	-377.933157	819.070523	1099.838117	-288.222236	955.753953	814.614604	-160.162919	1050.239343	775.455233	-182.530275	1013.739485	657.871961	-194.189063	850.496748	835.726587	-479.941583	906.244835	717.008804	-471.393878	840.144255	630.331053	-450.371494	1117.625314	429.173803	-248.066571	1082.949283	365.529867	-209.792766	1121.385281	246.673771	-264.643539	1095.545704	123.493617	-259.021364	1115.045761	158.934332	-335.523829	730.995463	463.494672	-413.999413	617.572047	540.306377	-421.530074	539.606703	463.468932	-387.598645	1039.499763	106.906583	-328.156337	1262.422370	 97.862450	-312.617769	1196.934087	 55.495024	-246.892290	396.462244	546.978011	-318.539105	366.066145	329.239099	-362.536756	341.850869	396.025013	-418.095417	952.551744	1587.920805	-455.020636	904.885585	1533.368147	-151.004498	995.284392	1495.635107	-275.985437	880.781711	1579.452980	-307.569704	875.846367	1549.582141	-485.626850	803.542478	1408.629938	-88.154069	725.662764	1383.563156	-138.263782	699.436012	1330.244333	-102.097526	680.822175	1262.892643	-77.499606	686.017354	1254.364205	-167.781851	893.981907	1477.760736	-556.152366	830.976016	1402.225557	-565.379799	862.733610	1365.282974	-623.362680	872.457672	1288.939679	-654.151843	817.682577	1267.266725	-582.293033	726.296852	1197.761369	-81.365742	926.721242	1191.909066	-88.870109	906.313114	1128.159101	-87.456944	934.480645	1243.494387	-593.092581	1046.679796	1320.043068	-476.932577	1059.089607	1252.802002	-486.969948	
339	  3.390000	980.381539	1050.750297	-445.719139	982.368751	1068.777379	-215.753099	817.587748	1089.382747	-376.942658	816.988497	1091.814653	-287.357653	953.188283	806.778287	-162.340706	1046.886253	768.475231	-188.166628	1008.674316	649.679902	-196.476502	855.377029	825.370047	-480.569502	916.871877	708.972901	-474.484134	855.543703	619.667969	-453.268839	1104.959868	416.983884	-252.675878	1068.365982	354.535539	-213.995570	1098.485709	234.326288	-270.565389	1065.873945	115.745700	-264.286197	1084.394576	147.895065	-341.689195	750.858895	458.647710	-418.371885	641.166551	540.586387	-425.807012	559.553984	467.503031	-390.820147	1007.199213	101.076170	-333.992676	1230.832994	 82.110856	-319.023748	1162.314591	 50.881367	-248.616596	419.342481	558.045913	-323.321801	384.233049	340.869035	-365.932323	361.857076	407.878844	-422.198004	952.431877	1579.185691	-456.141420	907.427594	1524.055727	-151.148537	996.508755	1487.150431	-277.111488	881.746375	1571.206915	-307.996179	874.878051	1541.528398	-485.484924	808.782795	1397.265776	-86.112080	729.890989	1370.829262	-133.944427	705.814424	1317.054077	-97.220795	688.509918	1249.706049	-72.096101	691.966832	1240.864009	-162.276068	890.617032	1471.567998	-556.968065	826.636476	1397.447663	-566.200098	856.577595	1360.926611	-625.499543	864.150994	1284.942732	-657.778324	810.497856	1263.037104	-585.440216	734.896312	1185.052069	-77.105749	935.491464	1181.542661	-88.770079	915.580355	1117.531105	-86.573274	926.011537	1234.412407	-600.653677	1044.378802	1301.591714	-484.741323	1054.049510	1234.560511	-498.242280	
340	  3.400000	977.917885	1042.029720	-444.836613	980.414511	1059.956531	-215.602518	814.496782	1080.808143	-375.756900	814.133863	1083.694369	-286.599825	949.361198	799.286599	-162.469041	1042.091903	759.152466	-193.627139	1003.597464	640.557124	-199.108504	860.725888	814.563391	-481.017205	928.273881	701.007768	-477.576005	872.091070	609.146492	-456.323239	1091.235290	406.044621	-260.355095	1053.114785	344.667837	-221.339548	1072.808900	223.774920	-279.991165	1032.152416	111.897493	-271.987196	1049.349511	139.565461	-350.800256	772.609893	453.712835	-422.741397	666.315685	539.714225	-430.571740	581.833545	469.864632	-394.564837	970.696818	 97.262484	-340.917698	1195.663530	 72.106701	-323.924797	1124.423346	 51.620016	-250.535134	444.358730	566.304687	-328.833824	405.533639	349.442239	-369.026618	384.561365	416.250506	-426.220634	951.840598	1569.544964	-457.530615	910.258590	1514.228071	-151.160732	997.928917	1477.794291	-278.508539	882.795046	1561.889243	-308.324923	873.392581	1532.177781	-485.376716	814.746932	1384.805821	-83.741608	734.998883	1356.919806	-129.281622	713.091578	1302.831384	-91.710273	697.228572	1235.579419	-66.230817	698.581773	1226.737277	-156.122984	886.602914	1464.073072	-557.655055	821.968358	1391.292282	-566.726339	849.748268	1355.397190	-627.540946	855.086876	1279.846960	-661.340904	802.970622	1257.735244	-588.394327	744.570642	1171.573213	-72.586878	945.136098	1170.608349	-88.874252	925.898365	1106.302428	-85.857462	916.552432	1224.362230	-608.244696	1041.007785	1282.042305	-493.365520	1047.976717	1215.528493	-510.630397	
341	  3.410000	975.165176	1032.561878	-443.472676	977.401379	1050.889801	-214.360394	809.818490	1072.584536	-374.440128	810.431603	1076.204485	-286.316321	944.790751	793.134956	-161.526914	1036.570671	749.787832	-196.695743	999.031922	632.389541	-202.366234	866.290867	803.730197	-480.904761	940.191785	693.701515	-480.390344	889.859086	599.539083	-459.318315	1076.826306	398.062965	-270.326064	1036.932927	338.199280	-230.657849	1045.705188	216.913134	-290.388162	996.292221	111.715487	-280.258024	1013.043325	135.048324	-360.312526	796.294899	449.185740	-426.474598	692.732065	537.926451	-435.657009	606.391230	470.739092	-398.910612	932.473696	 95.794577	-347.153339	1158.881941	 67.580065	-327.121365	1085.701347	 54.297241	-253.302786	471.212462	571.519348	-335.094269	429.351064	354.682014	-371.917974	409.555122	420.928045	-430.283846	950.744660	1559.548180	-459.411983	913.366287	1504.595185	-150.866576	999.822267	1467.981559	-279.995330	884.000537	1552.263025	-308.359768	871.407336	1522.117844	-485.349260	821.506740	1371.512249	-81.137072	741.006188	1342.181254	-124.196451	721.308953	1287.854788	-85.661821	707.292390	1220.778510	-60.128367	706.013813	1212.250922	-149.565559	881.960806	1455.426898	-558.305999	816.854604	1383.886636	-566.958195	842.095403	1348.863889	-629.461619	845.187259	1273.874162	-664.771046	795.142904	1251.561578	-590.952552	755.398645	1157.659805	-68.057114	955.680631	1159.376558	-89.211507	937.165784	1094.752481	-85.428161	906.088819	1213.785961	-615.589025	1036.499666	1262.008699	-502.769440	1040.860544	1196.275058	-523.933176	
